<svg width="50" height="50" viewBox="0 0 50 50" fill="none" xmlns="http://www.w3.org/2000/svg">
<rect width="50" height="50" rx="10" fill="white"/>
<rect x="1" y="25" width="24" height="24" rx="10" fill="#CFE2F3"/>
<path d="M15.7075 34.4788C15.5195 34.2802 15.2645 34.1686 14.9985 34.1686C14.7326 34.1686 14.4775 34.2802 14.2895 34.4788L8.67404 40.4102L8.67404 36.4759C8.66488 36.2016 8.55529 35.9418 8.36836 35.7512C8.18143 35.5607 7.93177 35.4541 7.67196 35.4541C7.41215 35.4541 7.16248 35.5607 6.97555 35.7512C6.78863 35.9418 6.67904 36.2016 6.66987 36.4759L6.66987 42.9664C6.67004 43.2471 6.77567 43.5162 6.96356 43.7147C7.15145 43.9131 7.40624 44.0247 7.67196 44.0249L13.8168 44.0249C13.9514 44.0299 14.0855 44.0062 14.2113 43.9553C14.337 43.9044 14.4517 43.8272 14.5486 43.7284C14.6455 43.6297 14.7225 43.5113 14.7751 43.3804C14.8278 43.2494 14.8549 43.1087 14.8549 42.9664C14.8549 42.8242 14.8278 42.6834 14.7751 42.5525C14.7225 42.4216 14.6455 42.3032 14.5486 42.2044C14.4517 42.1056 14.337 42.0285 14.2113 41.9776C14.0855 41.9266 13.9514 41.903 13.8168 41.908L10.0921 41.908L15.7075 35.9766C16.0989 35.5632 16.0989 34.8922 15.7075 34.4788Z" fill="#7A7A7A"/>
</svg>