<?xml version="1.0" encoding="utf-8"?>
<svg viewBox="2 2 12 12" width="12" height="12" xmlns="http://www.w3.org/2000/svg">
  <path d="M 2 4.5 C 2 3.12 3.12 2 4.5 2 L 6 2 L 6 3 L 4.5 3 C 3.6719999999999997 3 3 3.6719999999999997 3 4.5 L 3 6 L 2 6 L 2 4.5 Z" fill="#C0C0C0" stroke-width="1200"/>
  <path d="M 14 10 L 14 11.5 C 14 12.879999999999999 12.879999999999999 14 11.5 14 L 10 14 L 10 13 L 11.5 13 C 12.328 13 13 12.328 13 11.5 L 13 10 L 14 10 Z" fill="#C0C0C0" stroke-width="500"/>
  <path d="M 3 10 L 3 11.5 C 3 12.328 3.6719999999999997 13 4.5 13 L 6 13 L 6 14 L 4.5 14 C 3.12 14 2 12.88 2 11.5 L 2 10 L 3 10" style="fill: rgb(62, 133, 199);" stroke-width="500"/>
  <path d="M 3.5 11.5 C 3.478 11.812 3.585 11.998 3.793 12.207 C 4.002 12.415 4.188 12.522 4.5 12.5 L 6.5 12.5 L 6.5 14.5 L 4.5 14.5 C 3.708 14.478 2.894 14.137 2.379 13.621 C 1.863 13.106 1.522 12.292 1.5 11.5 L 1.5 9.5 L 3.5 9.5 Z M 3.107 12.935 C 3.491 13.311 3.923 13.521 4.5 13.5 C 3.994 13.479 3.444 13.258 3.107 12.935 Z" style="fill: none;"/>
  <path d="M 10 2 L 11.5 2 C 12.88 2 14 3.12 14 4.5 L 14 6 L 13 6 L 13 4.5 C 13 3.6719999999999997 12.328 3 11.5 3 L 10 3 L 10 2 Z" fill="#C0C0C0" stroke-width="700"/>
</svg>
