<?xml version="1.0"?>
<svg xmlns="http://www.w3.org/2000/svg" xmlns:xlink="http://www.w3.org/1999/xlink" xmlns:svgjs="http://svgjs.com/svgjs" version="1.1" width="512" height="512" x="0" y="0" viewBox="0 0 512.001 512.001" style="enable-background:new 0 0 512 512" xml:space="preserve" class=""><g>
<g xmlns="http://www.w3.org/2000/svg">
	<g>
		<path d="M506.35,80.699c-7.57-7.589-19.834-7.609-27.43-0.052L331.662,227.31l-42.557-42.557c-7.577-7.57-19.846-7.577-27.423,0    L89.076,357.36c-7.577,7.57-7.577,19.853,0,27.423c3.782,3.788,8.747,5.682,13.712,5.682c4.958,0,9.93-1.894,13.711-5.682    l158.895-158.888l42.531,42.524c7.57,7.57,19.808,7.577,27.397,0.032l160.97-160.323    C513.881,100.571,513.907,88.288,506.35,80.699z" fill="#000000" data-original="#000000" style="" class=""/>
	</g>
</g>
<g xmlns="http://www.w3.org/2000/svg">
	<g>
		<path d="M491.96,449.94H38.788V42.667c0-10.712-8.682-19.394-19.394-19.394S0,31.955,0,42.667v426.667    c0,10.712,8.682,19.394,19.394,19.394H491.96c10.712,0,19.394-8.682,19.394-19.394C511.354,458.622,502.672,449.94,491.96,449.94z    " fill="#000000" data-original="#000000" style="" class=""/>
	</g>
</g>
<g xmlns="http://www.w3.org/2000/svg">
	<g>
		<path d="M492.606,74.344H347.152c-10.712,0-19.394,8.682-19.394,19.394s8.682,19.394,19.394,19.394h126.061v126.067    c0,10.705,8.682,19.394,19.394,19.394S512,249.904,512,239.192V93.738C512,83.026,503.318,74.344,492.606,74.344z" fill="#000000" data-original="#000000" style="" class=""/>
	</g>
</g>
<g xmlns="http://www.w3.org/2000/svg">
</g>
<g xmlns="http://www.w3.org/2000/svg">
</g>
<g xmlns="http://www.w3.org/2000/svg">
</g>
<g xmlns="http://www.w3.org/2000/svg">
</g>
<g xmlns="http://www.w3.org/2000/svg">
</g>
<g xmlns="http://www.w3.org/2000/svg">
</g>
<g xmlns="http://www.w3.org/2000/svg">
</g>
<g xmlns="http://www.w3.org/2000/svg">
</g>
<g xmlns="http://www.w3.org/2000/svg">
</g>
<g xmlns="http://www.w3.org/2000/svg">
</g>
<g xmlns="http://www.w3.org/2000/svg">
</g>
<g xmlns="http://www.w3.org/2000/svg">
</g>
<g xmlns="http://www.w3.org/2000/svg">
</g>
<g xmlns="http://www.w3.org/2000/svg">
</g>
<g xmlns="http://www.w3.org/2000/svg">
</g>
</g></svg>
