<svg width="35" height="162" viewBox="0 0 39 180" fill="none" xmlns="http://www.w3.org/2000/svg">
<path d="M11.5533 13.8612L9.26203 11.5538C7.79953 13.4388 6.88953 15.6163 6.61328 17.875H9.89578C10.1233 16.4613 10.692 15.08 11.5533 13.8612ZM9.89578 21.125H6.61328C6.88953 23.3838 7.78328 25.5612 9.24578 27.4462L11.537 25.1388C10.692 23.92 10.1233 22.555 9.89578 21.125ZM11.537 29.77C13.422 31.2325 15.6158 32.11 17.8745 32.3862V29.0875C16.4608 28.8438 15.0958 28.2913 13.877 27.4138L11.537 29.77ZM21.1245 6.61375V1.625L13.7308 9.01875L21.1245 16.25V9.89625C25.7395 10.6763 29.2495 14.6737 29.2495 19.5C29.2495 24.3263 25.7395 28.3237 21.1245 29.1038V32.3862C27.5433 31.59 32.4995 26.13 32.4995 19.5C32.4995 12.87 27.5433 7.41 21.1245 6.61375Z" fill="white"/>
<path d="M25.2687 150.019L17.875 142.625V147.614C11.4725 148.41 6.5 153.87 6.5 160.5C6.5 167.13 11.4562 172.59 17.875 173.386V170.104C13.26 169.324 9.75 165.326 9.75 160.5C9.75 155.674 13.26 151.676 17.875 150.896V157.25L25.2687 150.019ZM32.3862 158.875C32.0973 156.568 31.1874 154.384 29.7537 152.554L27.4462 154.861C28.3237 156.08 28.8762 157.461 29.1037 158.875H32.3862ZM21.125 170.087V173.37C23.3837 173.094 25.5775 172.216 27.4625 170.754L25.1225 168.414C23.9037 169.291 22.5387 169.86 21.125 170.087ZM27.4462 166.155L29.7537 168.446C31.2162 166.561 32.11 164.384 32.3862 162.125H29.1037C28.8762 163.539 28.3237 164.92 27.4462 166.155Z" fill="white"/>
<path d="M12.017 66H9.38068L13.3977 54.3636H16.5682L20.5795 66H17.9432L15.0284 57.0227H14.9375L12.017 66ZM11.8523 61.4261H18.0795V63.3466H11.8523V61.4261ZM25.3892 64.2273V56.1818H27.4233V64.2273H25.3892ZM22.3835 61.2216V59.1875H30.429V61.2216H22.3835Z" fill="white"/>
<path d="M13.017 131H10.3807L14.3977 119.364H17.5682L21.5795 131H18.9432L16.0284 122.023H15.9375L13.017 131ZM12.8523 126.426H19.0795V128.347H12.8523V126.426ZM28.3722 124.222V126.142H23.0653V124.222H28.3722Z" fill="white"/>
</svg>
