<svg width="39" height="178" viewBox="0 0 39 178" fill="none" xmlns="http://www.w3.org/2000/svg">
<path d="M11.5533 13.8612L9.26203 11.5538C7.79953 13.4388 6.88953 15.6163 6.61328 17.875H9.89578C10.1233 16.4613 10.692 15.08 11.5533 13.8612ZM9.89578 21.125H6.61328C6.88953 23.3838 7.78328 25.5612 9.24578 27.4462L11.537 25.1388C10.692 23.92 10.1233 22.555 9.89578 21.125ZM11.537 29.77C13.422 31.2325 15.6158 32.11 17.8745 32.3862V29.0875C16.4608 28.8438 15.0958 28.2913 13.877 27.4138L11.537 29.77ZM21.1245 6.61375V1.625L13.7308 9.01875L21.1245 16.25V9.89625C25.7395 10.6763 29.2495 14.6737 29.2495 19.5C29.2495 24.3263 25.7395 28.3237 21.1245 29.1038V32.3862C27.5433 31.59 32.4995 26.13 32.4995 19.5C32.4995 12.87 27.5433 7.41 21.1245 6.61375Z" fill="white"/>
<path d="M27.4467 164.139L29.738 166.446C31.2005 164.561 32.1105 162.384 32.3867 160.125L29.1042 160.125C28.8767 161.539 28.308 162.92 27.4467 164.139ZM29.1042 156.875L32.3867 156.875C32.1105 154.616 31.2167 152.439 29.7542 150.554L27.463 152.861C28.308 154.08 28.8767 155.445 29.1042 156.875ZM27.463 148.23C25.578 146.768 23.3842 145.89 21.1255 145.614L21.1255 148.913C22.5392 149.156 23.9042 149.709 25.123 150.586L27.463 148.23ZM17.8755 171.386L17.8755 176.375L25.2692 168.981L17.8755 161.75L17.8755 168.104C13.2605 167.324 9.75047 163.326 9.75047 158.5C9.75047 153.674 13.2605 149.676 17.8755 148.896L17.8755 145.614C11.4567 146.41 6.50047 151.87 6.50047 158.5C6.50047 165.13 11.4567 170.59 17.8755 171.386Z" fill="white"/>
<path d="M12.017 66H9.38068L13.3977 54.3636H16.5682L20.5795 66H17.9432L15.0284 57.0227H14.9375L12.017 66ZM11.8523 61.4261H18.0795V63.3466H11.8523V61.4261ZM25.3892 64.2273V56.1818H27.4233V64.2273H25.3892ZM22.3835 61.2216V59.1875H30.429V61.2216H22.3835Z" fill="white"/>
<path d="M13.017 131H10.3807L14.3977 119.364H17.5682L21.5795 131H18.9432L16.0284 122.023H15.9375L13.017 131ZM12.8523 126.426H19.0795V128.347H12.8523V126.426ZM28.3722 124.222V126.142H23.0653V124.222H28.3722Z" fill="white"/>
</svg>
