<svg width="35" height="162" viewBox="0 0 39 180" fill="none" xmlns="http://www.w3.org/2000/svg" xmlns:bx="https://boxy-svg.com" preserveAspectRatio="none">
<path
    d="M 11.553 20.15 L 9.262 22.457 C 7.8 20.572 6.89 18.395 6.613 16.136 L 9.896 16.136 C 10.123 17.55 10.692 18.931 11.553 20.15 Z M 9.896 12.886 L 6.613 12.886 C 6.89 10.627 7.783 8.45 9.246 6.565 L 11.537 8.872 C 10.692 10.091 10.123 11.456 9.896 12.886 Z M 11.537 4.241 C 13.422 2.779 15.616 1.901 17.875 1.625 L 17.875 4.924 C 16.461 5.167 15.096 5.72 13.877 6.597 L 11.537 4.241 Z M 21.125 27.397 L 21.125 32.386 L 13.731 24.992 L 21.125 17.761 L 21.125 24.115 C 25.74 23.335 29.25 19.338 29.25 14.511 C 29.25 9.685 25.74 5.688 21.125 4.907 L 21.125 1.625 C 27.543 2.421 32.5 7.881 32.5 14.511 C 32.5 21.141 27.543 26.601 21.125 27.397 Z"
    fill="white"
    style="transform-box: fill-box; transform-origin: 50% 50%;"
    transform="matrix(-1, 0, 0, -1, 0.000003, -0.000003)"
/>
<path
    d="M 25.269 165.992 L 17.875 173.386 L 17.875 168.397 C 11.473 167.601 6.5 162.141 6.5 155.511 C 6.5 148.881 11.456 143.421 17.875 142.625 L 17.875 145.907 C 13.26 146.687 9.75 150.685 9.75 155.511 C 9.75 160.337 13.26 164.335 17.875 165.115 L 17.875 158.761 L 25.269 165.992 Z M 32.386 157.136 C 32.097 159.443 31.187 161.627 29.754 163.457 L 27.446 161.15 C 28.324 159.931 28.876 158.55 29.104 157.136 L 32.386 157.136 Z M 21.125 145.924 L 21.125 142.641 C 23.384 142.917 25.578 143.795 27.463 145.257 L 25.123 147.597 C 23.904 146.72 22.539 146.151 21.125 145.924 Z M 27.446 149.856 L 29.754 147.565 C 31.216 149.45 32.11 151.627 32.386 153.886 L 29.104 153.886 C 28.876 152.472 28.324 151.091 27.446 149.856 Z"
    fill="white"
    style="transform-box: fill-box; transform-origin: 50% 50%;"
    transform="matrix(-1, 0, 0, -1, -0.000001, 0.00002)"
/>
<path d="M12.017 66H9.38068L13.3977 54.3636H16.5682L20.5795 66H17.9432L15.0284 57.0227H14.9375L12.017 66ZM11.8523 61.4261H18.0795V63.3466H11.8523V61.4261ZM25.3892 64.2273V56.1818H27.4233V64.2273H25.3892ZM22.3835 61.2216V59.1875H30.429V61.2216H22.3835Z"
    fill="white"
/>
<path
    d="M13.017 131H10.3807L14.3977 119.364H17.5682L21.5795 131H18.9432L16.0284 122.023H15.9375L13.017 131ZM12.8523 126.426H19.0795V128.347H12.8523V126.426ZM28.3722 124.222V126.142H23.0653V124.222H28.3722Z"
    fill="white"
/>
</svg>