<svg version="1.2" xmlns="http://www.w3.org/2000/svg" viewBox="0 0 52 195" width="52" height="195">
	<style>
		.s0 { fill: #ffffff } 
	</style>
	<g id="aLabels">
		<path class="s0" d="m17.4 24.39l-2.33-2.35c-1.49 1.92-2.42 4.14-2.7 6.44h3.34c0.24-1.44 0.82-2.85 1.69-4.09zm-1.69 7.4h-3.34c0.28 2.3 1.19 4.52 2.68 6.44l2.34-2.35c-0.86-1.24-1.44-2.63-1.68-4.09zm1.68 8.81c1.92 1.49 4.15 2.38 6.45 2.66v-3.36c-1.44-0.24-2.83-0.81-4.07-1.7zm9.77-23.6v-5.08l-7.53 7.53 7.53 7.37v-6.47c4.7 0.79 8.28 4.87 8.28 9.78 0 4.92-3.58 8.99-8.28 9.79v3.34c6.54-0.81 11.59-6.37 11.59-13.13 0-6.75-5.05-12.32-11.59-13.13z"/>
		<path class="s0" d="m31.38 159.13l-7.54-7.54v5.08c-6.52 0.82-11.59 6.38-11.59 13.13 0 6.76 5.05 12.32 11.59 13.13v-3.34c-4.7-0.79-8.27-4.87-8.27-9.79 0-4.91 3.57-8.99 8.27-9.78v6.47zm7.26 9.03c-0.3-2.35-1.22-4.58-2.69-6.44l-2.35 2.35c0.9 1.24 1.46 2.65 1.69 4.09zm-11.47 11.42v3.35c2.3-0.28 4.53-1.18 6.45-2.67l-2.38-2.38c-1.24 0.89-2.63 1.47-4.07 1.7zm6.44-4.01l2.35 2.34c1.49-1.92 2.4-4.14 2.68-6.44h-3.34c-0.23 1.44-0.8 2.85-1.69 4.1z"/>
		<path class="s0" d="m17.88 73.52h-2.69l4.09-11.86h3.23l4.09 11.86h-2.69l-2.97-9.15h-0.09zm-0.17-4.66h6.35v1.95h-6.35zm13.8 2.86v-8.2h2.07v8.2zm-3.06-3.06v-2.08h8.19v2.08z"/>
		<path class="s0" d="m19.89 133.75h-2.68l4.09-11.86h3.23l4.09 11.86h-2.69l-2.97-9.15h-0.09zm-0.17-4.66h6.35v1.96h-6.35zm15.82-2.25v1.96h-5.41v-1.96z"/>
	</g>
</svg>