<svg width="71" height="71" viewBox="0 0 79 79"  xmlns="http://www.w3.org/2000/svg">
<path d="M28.7657 11.9983L51.2039 12.3263L66.8383 28.4244L66.5103 50.8626L50.4122 66.4969L27.974 66.169L12.3397 50.0709L12.6676 27.6327L28.7657 11.9983Z" fill="#DC2626" stroke="black"/>
<path d="M24.3239 36.7102C24.2784 36.2519 24.0833 35.8958 23.7386 35.642C23.3939 35.3883 22.9261 35.2614 22.3352 35.2614C21.9337 35.2614 21.5947 35.3182 21.3182 35.4318C21.0417 35.5417 20.8295 35.6951 20.6818 35.892C20.5379 36.089 20.4659 36.3125 20.4659 36.5625C20.4583 36.7708 20.5019 36.9527 20.5966 37.108C20.6951 37.2633 20.8295 37.3977 21 37.5114C21.1705 37.6212 21.3674 37.7178 21.5909 37.8011C21.8144 37.8807 22.053 37.9489 22.3068 38.0057L23.3523 38.2557C23.8598 38.3693 24.3258 38.5208 24.75 38.7102C25.1742 38.8996 25.5417 39.1326 25.8523 39.4091C26.1629 39.6856 26.4034 40.0114 26.5739 40.3864C26.7481 40.7614 26.8371 41.1913 26.8409 41.6761C26.8371 42.3883 26.6553 43.0057 26.2955 43.5284C25.9394 44.0473 25.4242 44.4508 24.75 44.7386C24.0795 45.0227 23.2708 45.1648 22.3239 45.1648C21.3845 45.1648 20.5663 45.0208 19.8693 44.733C19.1761 44.4451 18.6345 44.0189 18.2443 43.4545C17.858 42.8864 17.6553 42.1837 17.6364 41.3466H20.017C20.0436 41.7367 20.1553 42.0625 20.3523 42.3239C20.553 42.5814 20.8201 42.7765 21.1534 42.9091C21.4905 43.0379 21.8712 43.1023 22.2955 43.1023C22.7121 43.1023 23.0739 43.0417 23.3807 42.9205C23.6913 42.7992 23.9318 42.6307 24.1023 42.4148C24.2727 42.1989 24.358 41.9508 24.358 41.6705C24.358 41.4091 24.2803 41.1894 24.125 41.0114C23.9735 40.8333 23.75 40.6818 23.4545 40.5568C23.1629 40.4318 22.8049 40.3182 22.3807 40.2159L21.1136 39.8977C20.1326 39.6591 19.358 39.286 18.7898 38.7784C18.2216 38.2708 17.9394 37.5871 17.9432 36.7273C17.9394 36.0227 18.1269 35.4072 18.5057 34.8807C18.8883 34.3542 19.4129 33.9432 20.0795 33.6477C20.7462 33.3523 21.5038 33.2045 22.3523 33.2045C23.2159 33.2045 23.9697 33.3523 24.6136 33.6477C25.2614 33.9432 25.7652 34.3542 26.125 34.8807C26.4848 35.4072 26.6705 36.017 26.6818 36.7102H24.3239ZM28.0526 35.392V33.3636H37.6094V35.392H34.0469V45H31.6151V35.392H28.0526ZM49.3452 39.1818C49.3452 40.4508 49.1046 41.5303 48.6236 42.4205C48.1463 43.3106 47.4948 43.9905 46.669 44.4602C45.8471 44.9261 44.9228 45.1591 43.8963 45.1591C42.8622 45.1591 41.9342 44.9242 41.1122 44.4545C40.2902 43.9848 39.6406 43.3049 39.1634 42.4148C38.6861 41.5246 38.4474 40.447 38.4474 39.1818C38.4474 37.9129 38.6861 36.8333 39.1634 35.9432C39.6406 35.053 40.2902 34.375 41.1122 33.9091C41.9342 33.4394 42.8622 33.2045 43.8963 33.2045C44.9228 33.2045 45.8471 33.4394 46.669 33.9091C47.4948 34.375 48.1463 35.053 48.6236 35.9432C49.1046 36.8333 49.3452 37.9129 49.3452 39.1818ZM46.8509 39.1818C46.8509 38.3598 46.7277 37.6667 46.4815 37.1023C46.2391 36.5379 45.8963 36.1098 45.4531 35.8182C45.0099 35.5265 44.491 35.3807 43.8963 35.3807C43.3016 35.3807 42.7827 35.5265 42.3395 35.8182C41.8963 36.1098 41.5516 36.5379 41.3054 37.1023C41.063 37.6667 40.9418 38.3598 40.9418 39.1818C40.9418 40.0038 41.063 40.697 41.3054 41.2614C41.5516 41.8258 41.8963 42.2538 42.3395 42.5455C42.7827 42.8371 43.3016 42.983 43.8963 42.983C44.491 42.983 45.0099 42.8371 45.4531 42.5455C45.8963 42.2538 46.2391 41.8258 46.4815 41.2614C46.7277 40.697 46.8509 40.0038 46.8509 39.1818ZM51.1676 45V33.3636H55.7585C56.6411 33.3636 57.393 33.5322 58.0142 33.8693C58.6354 34.2027 59.1089 34.6667 59.4347 35.2614C59.7642 35.8523 59.929 36.5341 59.929 37.3068C59.929 38.0795 59.7623 38.7614 59.429 39.3523C59.0956 39.9432 58.6127 40.4034 57.9801 40.733C57.3513 41.0625 56.59 41.2273 55.696 41.2273H52.7699V39.2557H55.2983C55.7718 39.2557 56.1619 39.1742 56.4688 39.0114C56.7794 38.8447 57.0104 38.6155 57.1619 38.3239C57.3172 38.0284 57.3949 37.6894 57.3949 37.3068C57.3949 36.9205 57.3172 36.5833 57.1619 36.2955C57.0104 36.0038 56.7794 35.7784 56.4688 35.6193C56.1581 35.4564 55.7642 35.375 55.2869 35.375H53.6278V45H51.1676Z" fill="white"/>
</svg>
