<svg width="52" height="195" viewBox="0 0 52 195" fill="none" xmlns="http://www.w3.org/2000/svg">
<path fill-rule="evenodd" clip-rule="evenodd" d="M9.59875 29.2242C9.7377 29.3863 9.90722 29.5194 10.0976 29.616C10.2881 29.7126 10.4957 29.7707 10.7086 29.787C10.9214 29.8033 11.1355 29.7774 11.3384 29.711C11.5413 29.6445 11.7291 29.5387 11.8911 29.3997L26.0004 17.3075L40.1098 29.3997C40.2704 29.5468 40.459 29.6601 40.6643 29.7329C40.8697 29.8057 41.0875 29.8364 41.305 29.8233C41.5224 29.8102 41.735 29.7535 41.9301 29.6566C42.1252 29.5597 42.2989 29.4245 42.4407 29.2591C42.5825 29.0938 42.6896 28.9016 42.7557 28.694C42.8218 28.4864 42.8454 28.2677 42.8252 28.0507C42.805 27.8338 42.7415 27.6232 42.6382 27.4313C42.535 27.2395 42.3943 27.0704 42.2244 26.934L27.0578 13.934C26.7633 13.6817 26.3882 13.543 26.0004 13.543C25.6126 13.543 25.2376 13.6817 24.9431 13.934L9.77642 26.934C9.44965 27.2146 9.24762 27.6133 9.21472 28.0428C9.18181 28.4722 9.32072 28.8971 9.60092 29.2242" fill="white"/>
<path d="M10.8332 38.4586C10.501 38.4588 10.1766 38.3572 9.90383 38.1674C9.63108 37.9776 9.42308 37.7087 9.30786 37.397C9.19263 37.0854 9.17573 36.7459 9.25942 36.4243C9.3431 36.1027 9.52337 35.8145 9.77591 35.5986L24.9426 22.5986C25.2371 22.3462 25.6121 22.2075 25.9999 22.2075C26.3877 22.2075 26.7627 22.3462 27.0572 22.5986L42.2239 35.5986C42.4764 35.8145 42.6567 36.1027 42.7404 36.4243C42.8241 36.7459 42.8072 37.0854 42.692 37.397C42.5767 37.7087 42.3687 37.9776 42.096 38.1674C41.8232 38.3572 41.4989 38.4588 41.1666 38.4586H10.8332Z" fill="white"/>
<path fill-rule="evenodd" clip-rule="evenodd" d="M42.4012 165.776C42.2623 165.614 42.0928 165.481 41.9023 165.384C41.7119 165.287 41.5043 165.229 41.2914 165.213C41.0786 165.197 40.8645 165.223 40.6616 165.289C40.4587 165.355 40.2709 165.461 40.1089 165.6L25.9996 177.692L11.8902 165.6C11.7296 165.453 11.541 165.34 11.3357 165.267C11.1303 165.194 10.9125 165.164 10.695 165.177C10.4775 165.19 10.265 165.247 10.0699 165.343C9.87475 165.44 9.70114 165.576 9.55931 165.741C9.41749 165.906 9.31037 166.098 9.24431 166.306C9.17825 166.514 9.1546 166.732 9.17478 166.949C9.19496 167.166 9.25854 167.377 9.36175 167.569C9.46497 167.76 9.6057 167.93 9.77558 168.066L24.9422 181.066C25.2367 181.318 25.6118 181.457 25.9996 181.457C26.3874 181.457 26.7624 181.318 27.0569 181.066L42.2236 168.066C42.5503 167.785 42.7524 167.387 42.7853 166.957C42.8182 166.528 42.6793 166.103 42.3991 165.776" fill="white"/>
<path d="M41.1668 157.318C41.499 157.318 41.8234 157.419 42.0962 157.609C42.3689 157.799 42.5769 158.068 42.6921 158.379C42.8074 158.691 42.8243 159.031 42.7406 159.352C42.6569 159.674 42.4766 159.962 42.2241 160.178L27.0574 173.178C26.7629 173.43 26.3879 173.569 26.0001 173.569C25.6123 173.569 25.2373 173.43 24.9428 173.178L9.7761 160.178C9.52356 159.962 9.34329 159.674 9.2596 159.352C9.17592 159.031 9.19282 158.691 9.30805 158.379C9.42327 158.068 9.63127 157.799 9.90402 157.609C10.1768 157.419 10.5011 157.318 10.8334 157.318L41.1668 157.318Z" fill="white"/>
<path d="M15.8864 74V72.5398L21.6932 64.392H15.875V62.3636H24.7841V63.8239L18.9716 71.9716H24.7955V74H15.8864ZM29.8267 72.2273V64.1818H31.8608V72.2273H29.8267ZM26.821 69.2216V67.1875H34.8665V69.2216H26.821Z" fill="white"/>
<path d="M17.8864 138V136.54L23.6932 128.392H17.875V126.364H26.7841V127.824L20.9716 135.972H26.7955V138H17.8864ZM33.8097 131.222V133.142H28.5028V131.222H33.8097Z" fill="white"/>
</svg>
