<svg version="1.2" xmlns="http://www.w3.org/2000/svg" viewBox="0 0 52 195" width="52" height="195">
	<style>
		.s0 { fill: #ffffff } 
	</style>
	<path fill-rule="evenodd" class="s0" d="m9.6 29.22q0.21 0.25 0.5 0.4 0.29 0.14 0.61 0.17 0.32 0.02 0.63-0.08 0.31-0.1 0.55-0.31l14.11-12.09 14.11 12.09q0.24 0.22 0.55 0.33 0.32 0.11 0.65 0.09 0.32-0.02 0.62-0.16 0.3-0.15 0.51-0.4 0.21-0.25 0.32-0.57 0.1-0.31 0.07-0.64-0.04-0.33-0.19-0.62-0.16-0.29-0.42-0.5l-15.16-13c-0.3-0.25-0.67-0.39-1.06-0.39-0.39 0-0.76 0.14-1.06 0.39l-15.16 13c-0.33 0.28-0.53 0.68-0.57 1.11-0.03 0.43 0.11 0.86 0.39 1.18z"/>
	<path class="s0" d="m10.83 38.46q-0.51 0-0.93-0.29-0.41-0.3-0.59-0.77-0.18-0.48-0.05-0.98 0.13-0.49 0.52-0.82l15.16-13c0.3-0.25 0.67-0.39 1.06-0.39 0.39 0 0.76 0.14 1.06 0.39l15.16 13q0.39 0.33 0.52 0.82 0.13 0.5-0.05 0.98-0.18 0.47-0.59 0.77-0.42 0.29-0.93 0.29z"/>
	<path fill-rule="evenodd" class="s0" d="m42.4 165.78q-0.21-0.25-0.5-0.4-0.29-0.14-0.61-0.17-0.32-0.02-0.63 0.08-0.31 0.1-0.55 0.31l-14.11 12.09-14.11-12.09q-0.24-0.22-0.55-0.33-0.32-0.11-0.64-0.09-0.33 0.02-0.63 0.16-0.3 0.15-0.51 0.4-0.22 0.25-0.32 0.57-0.1 0.31-0.07 0.64 0.04 0.33 0.19 0.62 0.16 0.29 0.42 0.5l15.16 13c0.3 0.25 0.67 0.39 1.06 0.39 0.39 0 0.76-0.14 1.06-0.39l15.16-13c0.33-0.29 0.53-0.68 0.57-1.11 0.03-0.43-0.11-0.86-0.39-1.18z"/>
	<path class="s0" d="m41.17 157.32q0.51 0 0.93 0.29 0.41 0.29 0.59 0.77 0.18 0.48 0.05 0.97-0.13 0.49-0.52 0.83l-15.16 13c-0.3 0.25-0.67 0.39-1.06 0.39-0.39 0-0.76-0.14-1.06-0.39l-15.16-13q-0.39-0.34-0.52-0.83-0.13-0.49 0.05-0.97 0.18-0.48 0.59-0.77 0.42-0.29 0.93-0.29z"/>
	<path class="s0" d="m15.89 74v-1.46l5.8-8.15h-5.82v-2.03h8.91v1.46l-5.81 8.15h5.83v2.03zm13.94-1.77v-8.05h2.03v8.05zm-3.01-3.01v-2.03h8.05v2.03z"/>
	<path class="s0" d="m17.89 134v-1.46l5.8-8.15h-5.82v-2.03h8.91v1.46l-5.81 8.15h5.83v2.03zm15.92-6.78v1.92h-5.31v-1.92z"/>
</svg>