<svg width="37" height="38" viewBox="0 0 37 38" fill="none" xmlns="http://www.w3.org/2000/svg">
<path d="M9.25 17.4167H15.4167" stroke="#059669" stroke-width="2" stroke-linecap="round" stroke-linejoin="round"/>
<path d="M12.3335 14.25V20.5833" stroke="#059669" stroke-width="2" stroke-linecap="round" stroke-linejoin="round"/>
<path d="M23.125 19H23.1404" stroke="#059669" stroke-width="2" stroke-linecap="round" stroke-linejoin="round"/>
<path d="M27.75 15.8333H27.7654" stroke="#059669" stroke-width="2" stroke-linecap="round" stroke-linejoin="round"/>
<path d="M26.7018 7.91667H10.2985C8.77268 7.91704 7.30117 8.49835 6.16842 9.54824C5.03568 10.5981 4.32214 12.042 4.16575 13.6008C4.1565 13.6832 4.15033 13.7608 4.13954 13.8415C4.01466 14.9087 3.0835 22.8887 3.0835 25.3333C3.0835 26.5931 3.57077 27.8013 4.43813 28.6921C5.30548 29.5829 6.48187 30.0833 7.7085 30.0833C9.25016 30.0833 10.021 29.2917 10.7918 28.5L12.9717 26.2612C13.5498 25.6673 14.334 25.3335 15.1517 25.3333H21.8487C22.6663 25.3335 23.4505 25.6673 24.0286 26.2612L26.2085 28.5C26.9793 29.2917 27.7502 30.0833 29.2918 30.0833C30.5185 30.0833 31.6948 29.5829 32.5622 28.6921C33.4296 27.8013 33.9168 26.5931 33.9168 25.3333C33.9168 22.8871 32.9857 14.9087 32.8608 13.8415C32.85 13.7623 32.8438 13.6832 32.8346 13.6024C32.6785 12.0433 31.9652 10.599 30.8324 9.54883C29.6996 8.49861 28.2279 7.91708 26.7018 7.91667Z" stroke="#059669" stroke-width="2" stroke-linecap="round" stroke-linejoin="round"/>
</svg>
