<svg width="23" height="33" viewBox="0 0 23 33" fill="none" xmlns="http://www.w3.org/2000/svg">
<path d="M22.1414 19.8167C22.1414 16.7402 19.8737 14.1938 16.9186 13.7571L16.9186 4.14808C16.9186 2.20719 15.3452 0.63379 13.4043 0.633789L4.26429 0.63379C2.3234 0.63379 0.75 2.20719 0.75 4.14808V25.0396C0.75 26.9804 2.3234 28.5538 4.26429 28.5538H9.48714C9.49697 28.5538 9.50676 28.5537 9.51652 28.5534L12.7295 32.168C13.0608 32.5406 13.6314 32.5742 14.0041 32.2429C14.3768 31.9117 14.4104 31.341 14.0791 30.9683L9.54203 25.8641C9.33644 25.6328 9.26252 25.3042 9.38114 24.9484C9.44115 24.7683 9.61081 24.6367 9.84554 24.6367C10.203 24.6367 10.5509 24.7485 10.841 24.9563C11.762 25.616 12.8442 25.9424 14.0571 25.9424C15.6375 25.9424 16.9186 24.6613 16.9186 23.081L16.9186 15.5911C18.871 16.0062 20.3357 17.7406 20.3357 19.8167V31.5681C20.3357 32.0668 20.7399 32.471 21.2386 32.471C21.7372 32.471 22.1414 32.0668 22.1414 31.5681V19.8167ZM7.65133 24.4276C7.38956 25.2129 7.50604 26.0671 7.95108 26.7481H4.26429C3.32067 26.7481 2.55571 25.9832 2.55571 25.0396V4.14808C2.55571 3.20446 3.32067 2.4395 4.26429 2.4395L13.4043 2.4395C14.3479 2.4395 15.1129 3.20446 15.1129 4.14808L15.1129 23.081C15.1129 23.664 14.6402 24.1367 14.0571 24.1367C13.2029 24.1367 12.4918 23.9176 11.8926 23.4884C11.2948 23.0602 10.5789 22.831 9.81411 22.831C8.83639 22.831 7.97471 23.4575 7.65133 24.4276ZM5.97286 4.14813C5.97286 4.64676 6.37708 5.05098 6.87572 5.05098H10.7929C11.2915 5.05098 11.6957 4.64676 11.6957 4.14813C11.6957 3.64949 11.2915 3.24527 10.7929 3.24527H6.87572C6.37708 3.24527 5.97286 3.64949 5.97286 4.14813Z" fill="#059669" stroke="#059669" stroke-width="0.5"/>
</svg>
