<?xml version="1.0" standalone="no"?>
<!DOCTYPE svg PUBLIC "-//W3C//DTD SVG 20010904//EN"
 "http://www.w3.org/TR/2001/REC-SVG-20010904/DTD/svg10.dtd">
<svg version="1.0" xmlns="http://www.w3.org/2000/svg"
 width="512.000000pt" height="512.000000pt" viewBox="0 0 512.000000 512.000000"
 preserveAspectRatio="xMidYMid meet">

<g transform="translate(0.000000,512.000000) scale(0.100000,-0.100000)"
fill="#C0C0C0">
<path d="M561 4188 c-49 -33 -72 -69 -78 -120 -7 -58 23 -118 74 -149 l38 -24
785 -6 c842 -6 815 -4 1038 -60 188 -47 422 -152 592 -265 404 -270 700 -684
819 -1149 56 -215 54 -194 60 -1035 l6 -785 24 -38 c31 -51 91 -81 149 -74 50
5 87 29 120 77 l22 33 0 741 c0 606 -3 764 -15 865 -64 515 -289 976 -655
1341 -284 285 -651 497 -1026 595 -267 70 -238 68 -1119 72 l-800 4 -34 -23z" stroke="#c0c0c0" stroke-width="700"/>
</g>
</svg>
