<svg width="73" height="101" viewBox="0 0 73 101" fill="none" xmlns="http://www.w3.org/2000/svg">
<g filter="url(#filter0_d_15_179)">
<path d="M14 45H28L60.5 68L49 86.5L45.5 91.5L11 68L9 50.5L14 45Z" fill="#C09D87"/>
<path d="M49 86.5L15.5 63L14 45M49 86.5L60.5 68L28 45H14M49 86.5L45.5 91.5L11 68L9 50.5L14 45" stroke="black"/>
</g>
<path d="M34.5294 57L30 54L32.8824 51L37 54L34.5294 57Z" fill="#8B7454" stroke="black"/>
<path d="M28 65L22.5 61.5L26 58L31 61.5L28 65Z" fill="#8B7454" stroke="black"/>
<path d="M45 72.5L53.5 79.5L58 72.5L49.5 67L45 72.5Z" fill="#886E5E" stroke="black"/>
<path d="M28 1.31594C32.6565 0.847459 35.2243 0.865433 39.6964 1.6041L40.234 24.3007C40.3806 28.4215 40.2982 30.7743 39.7309 35.0829C41.5795 40.1493 41.2917 43.4035 39.622 49.5687C40.3113 51.244 40.5956 52.2114 40.8621 54L36.4616 53.8995L29.1419 53.7324L28.0431 53.7074L29.3243 48.4009C28.607 46.4689 28.3543 44.6017 28.065 40.4284C28.1203 38.2929 28.3483 36.9561 29.341 34.1561C28.857 33.2207 28.6021 32.515 28.2008 30.9324L28.0729 24.574L28 1.31594Z" fill="#C4C4C4"/>
<path d="M40.234 24.3007L39.6964 1.6041C35.2243 0.865433 32.6565 0.847459 28 1.31594L28.0729 24.574M40.234 24.3007C39.4648 22.6205 39.08 21.9255 38.6309 21.9604C34.3921 25.9384 32.0859 30.1483 28.065 40.4284M40.234 24.3007C40.3806 28.4214 40.2982 30.7743 39.7309 35.0829ZM40.234 24.3007C39.6093 33.529 38.1036 36.9033 34.2434 41.0969C30.5345 45.4752 30.3231 46.3355 29.3243 48.4009M28.065 40.4284C28.3543 44.6017 28.607 46.4689 29.3243 48.4009ZM28.065 40.4284C28.1203 38.2929 28.3483 36.9561 29.341 34.1561ZM29.341 34.1561C28.857 33.2207 28.6021 32.515 28.2008 30.9324L28.0729 24.574M29.341 34.1561C31.6201 29.4834 32.6109 27.2988 32.4794 26.2817C32.1895 23.955 31.7808 22.8568 30.2088 21.6048C29.4114 22.2334 28.9454 22.8613 28.0729 24.574M29.3243 48.4009L28.0431 53.7074L29.1419 53.7324M39.622 49.5687C40.3113 51.244 40.5956 52.2114 40.8621 54L36.4616 53.8995M39.622 49.5687C41.2917 43.4035 41.5795 40.1493 39.7309 35.0829ZM39.622 49.5687C38.302 51.1188 37.6172 52.0757 36.4616 53.8995ZM39.7309 35.0829C37.6941 39.3832 36.5077 41.1534 34.3513 43.7532C31.697 47.3268 30.6494 49.5597 29.1419 53.7324M29.1419 53.7324L36.4616 53.8995Z" fill="#C4C4C4"/>
<path d="M40.234 24.3007L39.6964 1.6041C35.2243 0.865433 32.6565 0.847459 28 1.31594L28.0729 24.574M40.234 24.3007C39.4648 22.6205 39.08 21.9255 38.6309 21.9604C34.3921 25.9384 32.0859 30.1483 28.065 40.4284M40.234 24.3007C40.3806 28.4214 40.2982 30.7743 39.7309 35.0829M40.234 24.3007C39.6093 33.529 38.1036 36.9033 34.2434 41.0969C30.5345 45.4752 30.3231 46.3355 29.3243 48.4009M28.0729 24.574L28.2008 30.9324C28.6021 32.515 28.857 33.2207 29.341 34.1561M28.0729 24.574C28.9454 22.8613 29.4114 22.2334 30.2088 21.6048C31.7808 22.8568 32.1895 23.955 32.4794 26.2817C32.6109 27.2988 31.6201 29.4834 29.341 34.1561M28.065 40.4284C28.3543 44.6017 28.607 46.4689 29.3243 48.4009M28.065 40.4284C28.1203 38.2929 28.3483 36.9561 29.341 34.1561M39.7309 35.0829C41.5795 40.1493 41.2917 43.4035 39.622 49.5687M39.7309 35.0829C37.6941 39.3832 36.5077 41.1534 34.3513 43.7532C31.697 47.3268 30.6494 49.5597 29.1419 53.7324M29.3243 48.4009L28.0431 53.7074L29.1419 53.7324M29.1419 53.7324L36.4616 53.8995M39.622 49.5687C40.3113 51.244 40.5956 52.2114 40.8621 54L36.4616 53.8995M39.622 49.5687C38.302 51.1188 37.6172 52.0757 36.4616 53.8995" stroke="black"/>
<path d="M44.5008 49.6815H48.9902C49.3605 49.6815 49.6023 49.2929 49.4388 48.9607L48.1187 46.2793C47.9987 46.0355 47.706 45.9322 47.4596 46.0466L45.5166 46.9487C45.4356 46.9863 45.3662 47.0449 45.3155 47.1184L44.0892 48.8978C43.8605 49.2295 44.098 49.6815 44.5008 49.6815Z" fill="#AE8B75"/>
<path d="M45.3155 47.1184C45.3662 47.0449 45.4356 46.9863 45.5166 46.9487L47.4596 46.0466C47.706 45.9322 47.9987 46.0355 48.1187 46.2793L49.4388 48.9607C49.6023 49.2929 49.3605 49.6815 48.9902 49.6815H44.5008C44.098 49.6815 43.8605 49.2295 44.0892 48.8978L45.3155 47.1184ZM45.3155 47.1184L44.9038 46.8347" stroke="black"/>
<path d="M51.1734 51.0385L53.8535 47.0826C54.3238 46.3884 55.3882 46.5465 55.6365 47.3474L56.194 49.1458C56.2452 49.3108 56.2527 49.4863 56.2159 49.6552L55.6994 52.0208C55.593 52.5082 55.1436 52.8426 54.6462 52.8045L51.9251 52.5965C51.1595 52.538 50.7427 51.6742 51.1734 51.0385Z" fill="#AE8B75" stroke="black"/>
<path d="M60.402 48.729L71.1257 53.4347C71.8935 53.7717 71.9307 54.8472 71.1879 55.2363L66.4954 57.6944C66.3423 57.7746 66.171 57.8137 65.9983 57.808L60.7082 57.6333C60.2096 57.6169 59.7994 57.2354 59.7468 56.7393L59.0058 49.7501C58.9248 48.9866 59.6989 48.4204 60.402 48.729Z" fill="#AE8B75" stroke="black"/>
<defs>
<filter id="filter0_d_15_179" x="0.477539" y="44.5" width="60.6958" height="55.6912" filterUnits="userSpaceOnUse" color-interpolation-filters="sRGB">
<feFlood flood-opacity="0" result="BackgroundImageFix"/>
<feColorMatrix in="SourceAlpha" type="matrix" values="0 0 0 0 0 0 0 0 0 0 0 0 0 0 0 0 0 0 127 0" result="hardAlpha"/>
<feOffset dx="-4" dy="4"/>
<feGaussianBlur stdDeviation="2"/>
<feComposite in2="hardAlpha" operator="out"/>
<feColorMatrix type="matrix" values="0 0 0 0 0 0 0 0 0 0 0 0 0 0 0 0 0 0 0.25 0"/>
<feBlend mode="normal" in2="BackgroundImageFix" result="effect1_dropShadow_15_179"/>
<feBlend mode="normal" in="SourceGraphic" in2="effect1_dropShadow_15_179" result="shape"/>
</filter>
</defs>
</svg>
