<svg width="32" height="24" viewBox="0 0 32 24" fill="none" xmlns="http://www.w3.org/2000/svg">
<path d="M2.87289 24C2.05393 24 1.37067 23.692 0.823111 23.076C0.275556 22.46 0.00118519 21.6907 0 20.768V3.232C0 2.31067 0.27437 1.542 0.823111 0.925999C1.37185 0.31 2.05452 0.00133333 2.87111 0H29.1289C29.9467 0 30.6293 0.308666 31.1769 0.925999C31.7244 1.54333 31.9988 2.312 32 3.232V20.77C32 21.69 31.7256 22.4587 31.1769 23.076C30.6281 23.6933 29.9455 24.0013 29.1289 24H2.87289ZM2.87289 22H29.1289C29.4015 22 29.6521 21.872 29.8809 21.616C30.1096 21.36 30.2234 21.0773 30.2222 20.768V3.232C30.2222 2.924 30.1084 2.64133 29.8809 2.384C29.6533 2.12667 29.4027 1.99867 29.1289 2H2.87111C2.59852 2 2.34785 2.128 2.11911 2.384C1.89037 2.64 1.77659 2.92267 1.77778 3.232V20.77C1.77778 21.0767 1.89156 21.3587 2.11911 21.616C2.34667 21.8733 2.59733 22.0013 2.87111 22M9.29956 19.54H22.7004V16.46H9.29956V19.54ZM3.96622 13.54H6.70044V10.46H3.96622V13.54ZM9.29956 13.54H12.0338V10.46H9.29956V13.54ZM14.6329 13.54H17.3671V10.46H14.6329V13.54ZM19.9662 13.54H22.7004V10.46H19.9662V13.54ZM25.2996 13.54H28.0338V10.46H25.2996V13.54ZM3.96622 7.54H6.70044V4.46H3.96622V7.54ZM9.29956 7.54H12.0338V4.46H9.29956V7.54ZM14.6329 7.54H17.3671V4.46H14.6329V7.54ZM19.9662 7.54H22.7004V4.46H19.9662V7.54ZM25.2996 7.54H28.0338V4.46H25.2996V7.54Z" fill="#2F2F2F"/>
</svg>
