<?xml version="1.0" encoding="UTF-8" standalone="no"?>
<!DOCTYPE svg PUBLIC "-//W3C//DTD SVG 20010904//EN"
              "http://www.w3.org/TR/2001/REC-SVG-20010904/DTD/svg10.dtd">

<svg xmlns="http://www.w3.org/2000/svg"
     width="2.22222in" height="2.22222in"
     viewBox="0 0 200 200">
  <path id="br"
        fill="none" stroke="black" stroke-width="1"
        d="M 87.00,113.00
           C 87.00,113.00 20.00,113.00 20.00,113.00
             8.67,112.86 0.35,107.00 0.02,95.00
             -0.14,89.45 0.20,85.65 3.79,81.10
             6.69,77.42 10.91,75.79 15.00,73.75
             15.00,73.75 37.00,63.58 37.00,63.58
             37.00,63.58 85.00,41.31 85.00,41.31
             85.00,41.31 132.00,19.74 132.00,19.74
             132.00,19.74 158.00,7.74 158.00,7.74
             166.30,3.73 172.58,-0.25 182.00,0.02
             194.25,0.35 200.30,9.52 199.98,21.00
             199.80,27.76 195.22,35.87 192.26,42.00
             192.26,42.00 180.26,68.00 180.26,68.00
             180.26,68.00 158.69,115.00 158.69,115.00
             158.69,115.00 136.42,163.00 136.42,163.00
             133.00,170.85 124.13,192.47 117.91,196.89
             113.60,199.95 110.08,200.13 105.00,199.98
             91.43,199.61 87.02,190.03 87.00,178.00
             87.00,178.00 87.00,113.00 87.00,113.00 Z" />
</svg>
