<?xml version="1.0" encoding="UTF-8" standalone="no"?>
<!DOCTYPE svg PUBLIC "-//W3C//DTD SVG 20010904//EN"
              "http://www.w3.org/TR/2001/REC-SVG-20010904/DTD/svg10.dtd">

<svg id="bl" xmlns="http://www.w3.org/2000/svg"
     width="2.22222in" height="2.22222in"
     viewBox="0 0 200 200">
  <path
        fill="#000000" stroke="black" stroke-width="1"
        d="M 113.00,113.00
           C 113.00,113.00 113.00,180.00 113.00,180.00
             112.86,191.33 107.00,199.65 95.00,199.98
             89.92,200.13 86.40,199.95 82.09,196.89
             75.87,192.47 67.00,170.85 63.58,163.00
             63.58,163.00 41.31,115.00 41.31,115.00
             41.31,115.00 19.74,68.00 19.74,68.00
             19.74,68.00 7.74,42.00 7.74,42.00
             3.73,33.70 -0.25,27.42 0.02,18.00
             0.35,5.75 9.52,-0.30 21.00,0.02
             27.76,0.20 35.87,4.78 42.00,7.74
             42.00,7.74 68.00,19.74 68.00,19.74
             68.00,19.74 115.00,41.31 115.00,41.31
             115.00,41.31 163.00,63.58 163.00,63.58
             163.00,63.58 185.00,73.75 185.00,73.75
             189.09,75.79 193.31,77.42 196.21,81.10
             199.80,85.65 200.14,89.45 199.98,95.00
             199.61,108.57 190.03,112.98 178.00,113.00
             178.00,113.00 113.00,113.00 113.00,113.00 Z" />
</svg>
