<?xml version="1.0" encoding="UTF-8" standalone="no"?>
<!DOCTYPE svg PUBLIC "-//W3C//DTD SVG 20010904//EN"
              "http://www.w3.org/TR/2001/REC-SVG-20010904/DTD/svg10.dtd">

<svg xmlns="http://www.w3.org/2000/svg"
     width="2.22222in" height="2.22222in"
     viewBox="0 0 200 200">
  <path id="fl"
        fill="none" stroke="black" stroke-width="1"
        d="M 113.00,87.00
           C 113.00,87.00 113.00,20.00 113.00,20.00
             112.86,8.67 107.00,0.35 95.00,0.02
             89.92,-0.13 86.40,0.05 82.09,3.11
             75.87,7.53 67.00,29.15 63.58,37.00
             63.58,37.00 41.31,85.00 41.31,85.00
             41.31,85.00 19.74,132.00 19.74,132.00
             19.74,132.00 7.74,158.00 7.74,158.00
             3.73,166.30 -0.25,172.58 0.02,182.00
             0.35,194.25 9.52,200.30 21.00,199.98
             27.76,199.80 35.87,195.22 42.00,192.26
             42.00,192.26 68.00,180.26 68.00,180.26
             68.00,180.26 115.00,158.69 115.00,158.69
             115.00,158.69 163.00,136.42 163.00,136.42
             163.00,136.42 185.00,126.25 185.00,126.25
             189.09,124.21 193.31,122.58 196.21,118.90
             199.80,114.35 200.14,110.55 199.98,105.00
             199.61,91.43 190.03,87.02 178.00,87.00
             178.00,87.00 113.00,87.00 113.00,87.00 Z" />
</svg>
