<svg width="180" height="182" viewBox="0 0 200 202" fill="none" xmlns="http://www.w3.org/2000/svg">
<path d="M96.9665 4.37484L85.1665 16.1748C84.6651 16.6759 84.3236 17.3144 84.1852 18.0097C84.0468 18.705 84.1177 19.4256 84.389 20.0806L84.5108 20.3404C84.8113 20.9276 85.268 21.4206 85.8307 21.7648C86.3935 22.1091 87.0403 22.2913 87.7 22.2915H92.3332V34.8332C92.3332 35.7835 92.7107 36.695 93.3827 37.367C94.0547 38.039 94.9662 38.4165 95.9165 38.4165H103.083L103.352 38.4075C104.253 38.3397 105.096 37.9337 105.711 37.2708C106.325 36.6079 106.667 35.7372 106.667 34.8332L106.665 22.2915H111.3C112.008 22.2914 112.701 22.0811 113.29 21.6874C113.879 21.2936 114.338 20.734 114.61 20.0793C114.881 19.4247 114.952 18.7043 114.814 18.0093C114.675 17.3143 114.334 16.6759 113.833 16.1748L102.033 4.37484C101.361 3.70306 100.45 3.32568 99.4999 3.32568C98.5497 3.32568 97.6384 3.70306 96.9665 4.37484Z" fill="white"/>
<path d="M103.034 196.625L114.833 184.825C115.335 184.324 115.676 183.686 115.815 182.99C115.953 182.295 115.882 181.574 115.611 180.919L115.489 180.66C115.189 180.072 114.732 179.579 114.169 179.235C113.607 178.891 112.96 178.709 112.3 178.708L107.667 178.708L107.667 166.167C107.667 165.216 107.289 164.305 106.617 163.633C105.945 162.961 105.034 162.583 104.083 162.583L96.9168 162.583L96.648 162.592C95.7466 162.66 94.904 163.066 94.2893 163.729C93.6746 164.392 93.3332 165.263 93.3335 166.167L93.3352 178.708L88.7002 178.708C87.9916 178.709 87.299 178.919 86.7098 179.313C86.1207 179.706 85.6615 180.266 85.3904 180.921C85.1192 181.575 85.0482 182.296 85.1865 182.991C85.3247 183.686 85.6658 184.324 86.1668 184.825L97.9667 196.625C98.6387 197.297 99.55 197.674 100.5 197.674C101.45 197.674 102.362 197.297 103.034 196.625Z" fill="white"/>
<path d="M196.625 97.9665L184.825 86.1665C184.324 85.6651 183.685 85.3236 182.99 85.1852C182.295 85.0468 181.574 85.1177 180.919 85.389L180.659 85.5108C180.072 85.8113 179.579 86.268 179.235 86.8307C178.89 87.3935 178.708 88.0403 178.708 88.7L178.708 93.3332L166.166 93.3332C165.216 93.3332 164.305 93.7107 163.633 94.3827C162.961 95.0547 162.583 95.9662 162.583 96.9165L162.583 104.083L162.592 104.352C162.66 105.253 163.066 106.096 163.729 106.711C164.392 107.325 165.262 107.667 166.166 107.667L178.708 107.665L178.708 112.3C178.708 113.008 178.918 113.701 179.312 114.29C179.706 114.879 180.265 115.338 180.92 115.61C181.575 115.881 182.295 115.952 182.99 115.814C183.685 115.675 184.324 115.334 184.825 114.833L196.625 103.033C197.296 102.361 197.674 101.45 197.674 100.5C197.674 99.5497 197.296 98.6384 196.625 97.9665Z" fill="white"/>
<path d="M4.37532 103.034L16.1752 114.833C16.6764 115.335 17.3149 115.676 18.0102 115.815C18.7054 115.953 19.4261 115.882 20.0811 115.611L20.3409 115.489C20.9281 115.189 21.421 114.732 21.7653 114.169C22.1096 113.607 22.2918 112.96 22.292 112.3L22.292 107.667L34.8337 107.667C35.784 107.667 36.6955 107.289 37.3675 106.617C38.0395 105.945 38.417 105.034 38.417 104.083L38.417 96.9168L38.408 96.648C38.3402 95.7466 37.9342 94.904 37.2713 94.2893C36.6084 93.6746 35.7377 93.3332 34.8337 93.3335L22.292 93.3353L22.292 88.7002C22.2918 87.9916 22.0816 87.299 21.6878 86.7098C21.2941 86.1207 20.7345 85.6615 20.0798 85.3904C19.4252 85.1192 18.7048 85.0483 18.0098 85.1865C17.3148 85.3247 16.6764 85.6658 16.1752 86.1668L4.37532 97.9667C3.70355 98.6387 3.32617 99.55 3.32617 100.5C3.32617 101.45 3.70355 102.362 4.37532 103.034Z" fill="white"/>
<path d="M91.3295 46.3636L94.0852 46.3636L96.7386 51.375L96.8523 51.375L99.5057 46.3636L102.261 46.3636L98.017 53.8864L98.017 58L95.5739 58L95.5739 53.8864L91.3295 46.3636ZM106.514 56.2273L106.514 48.1818L108.548 48.1818L108.548 56.2273L106.514 56.2273ZM103.509 53.2216L103.509 51.1875L111.554 51.1875L111.554 53.2216L103.509 53.2216Z" fill="white"/>
<path d="M94.3295 146.364L97.0852 146.364L99.7386 151.375L99.8523 151.375L102.506 146.364L105.261 146.364L101.017 153.886L101.017 158L98.5739 158L98.5739 153.886L94.3295 146.364ZM111.497 151.222L111.497 153.142L106.19 153.142L106.19 151.222L111.497 151.222Z" fill="white"/>
<path d="M44.3182 95.3636L46.6648 99.3295H46.7557L49.1136 95.3636H51.892L48.3409 101.182L51.9716 107H49.142L46.7557 103.028H46.6648L44.2784 107H41.4602L45.1023 101.182L41.5284 95.3636H44.3182ZM57.9659 100.222V102.142H52.6591V100.222H57.9659Z" fill="white"/>
<path d="M144.318 95.3636L146.665 99.3295H146.756L149.114 95.3636H151.892L148.341 101.182L151.972 107H149.142L146.756 103.028H146.665L144.278 107H141.46L145.102 101.182L141.528 95.3636H144.318ZM155.983 105.227V97.1818H158.017V105.227H155.983ZM152.977 102.222V100.188H161.023V102.222H152.977Z" fill="white"/>
<path d="M71.929 147.295C72.0464 147.013 72.09 146.721 72.0551 146.453C72.0202 146.184 71.908 145.948 71.7309 145.77L54.23 128.27C54.0519 128.093 53.816 127.982 53.5476 127.948C53.2792 127.914 52.9884 127.958 52.7065 128.075C52.4247 128.193 52.1624 128.379 51.9479 128.615C51.7334 128.85 51.5748 129.126 51.4892 129.412L44.153 154.249C44.0773 154.503 44.0618 154.757 44.1079 154.99C44.154 155.222 44.2603 155.426 44.4176 155.583C44.5749 155.74 44.7784 155.846 45.0108 155.892C45.2432 155.939 45.4973 155.923 45.7514 155.847L70.5885 148.511C70.8752 148.427 71.1517 148.269 71.3881 148.055C71.6244 147.84 71.8115 147.577 71.929 147.295ZM47.8305 152.17L53.6102 132.599L67.4009 146.39L47.8305 152.17Z" fill="white" fill-opacity="0.8"/>
<path d="M126.707 52.0687C126.589 52.3511 126.546 52.6424 126.581 52.9111C126.616 53.1798 126.728 53.4157 126.905 53.5934L144.406 71.0943C144.584 71.2704 144.82 71.3816 145.088 71.4159C145.357 71.4502 145.647 71.4062 145.929 71.2887C146.211 71.1712 146.473 70.9847 146.688 70.7492C146.902 70.5136 147.061 70.238 147.147 69.9519L154.483 45.1148C154.558 44.8607 154.574 44.6066 154.528 44.3742C154.482 44.1419 154.375 43.9383 154.218 43.781C154.061 43.6237 153.857 43.5174 153.625 43.4713C153.393 43.4252 153.138 43.4407 152.884 43.5164L128.047 50.8526C127.761 50.9369 127.484 51.0948 127.248 51.3092C127.011 51.5236 126.824 51.7863 126.707 52.0687ZM150.805 47.1939L145.026 66.7643L131.235 52.9736L150.805 47.1939Z" fill="white" fill-opacity="0.8"/>
<path d="M51.7044 72.2928C51.9868 72.4102 52.2781 72.4538 52.5468 72.4188C52.8155 72.3839 53.0514 72.2718 53.2291 72.0946L70.73 54.5937C70.9062 54.4157 71.0174 54.1798 71.0516 53.9114C71.0859 53.6429 71.0419 53.3522 70.9244 53.0703C70.807 52.7884 70.6204 52.5262 70.3849 52.3117C70.1494 52.0972 69.8737 51.9386 69.5877 51.853L44.7505 44.5167C44.4965 44.4411 44.2423 44.4256 44.01 44.4717C43.7776 44.5178 43.574 44.6241 43.4167 44.7813C43.2594 44.9386 43.1532 45.1422 43.1071 45.3746C43.061 45.6069 43.0765 45.8611 43.1521 46.1152L50.4884 70.9523C50.5726 71.239 50.7305 71.5155 50.9449 71.7518C51.1593 71.9882 51.422 72.1753 51.7044 72.2928ZM46.8296 48.1942L66.4 53.9739L52.6093 67.7646L46.8296 48.1942Z" fill="white" fill-opacity="0.8"/>
<path d="M146.931 127.071C146.649 126.954 146.358 126.91 146.089 126.945C145.82 126.98 145.584 127.092 145.407 127.27L127.906 144.771C127.73 144.949 127.618 145.184 127.584 145.453C127.55 145.721 127.594 146.012 127.711 146.294C127.829 146.576 128.015 146.838 128.251 147.053C128.486 147.267 128.762 147.426 129.048 147.511L153.885 154.848C154.139 154.923 154.393 154.939 154.626 154.893C154.858 154.846 155.062 154.74 155.219 154.583C155.376 154.426 155.483 154.222 155.529 153.99C155.575 153.757 155.559 153.503 155.484 153.249L148.147 128.412C148.063 128.125 147.905 127.849 147.691 127.612C147.476 127.376 147.214 127.189 146.931 127.071ZM151.806 151.17L132.236 145.39L146.026 131.6L151.806 151.17Z" fill="white" fill-opacity="0.8"/>
</svg>
