<?xml version="1.0" encoding="UTF-8" standalone="no"?>
<!DOCTYPE svg PUBLIC "-//W3C//DTD SVG 20010904//EN"
              "http://www.w3.org/TR/2001/REC-SVG-20010904/DTD/svg10.dtd">

<svg xmlns="http://www.w3.org/2000/svg"
     width="2.22222in" height="2.22222in"
     viewBox="0 0 200 200">
  <path id="fr"
        fill="none" stroke="black" stroke-width="1"
        d="M 87.00,87.00
           C 87.00,87.00 87.00,20.00 87.00,20.00
             87.14,8.67 93.00,0.35 105.00,0.02
             110.08,-0.13 113.60,0.05 117.91,3.11
             124.13,7.53 133.00,29.15 136.42,37.00
             136.42,37.00 158.69,85.00 158.69,85.00
             158.69,85.00 180.26,132.00 180.26,132.00
             180.26,132.00 192.26,158.00 192.26,158.00
             196.27,166.30 200.25,172.58 199.98,182.00
             199.65,194.25 190.48,200.30 179.00,199.98
             172.24,199.80 164.13,195.22 158.00,192.26
             158.00,192.26 132.00,180.26 132.00,180.26
             132.00,180.26 85.00,158.69 85.00,158.69
             85.00,158.69 37.00,136.42 37.00,136.42
             37.00,136.42 15.00,126.25 15.00,126.25
             10.91,124.21 6.69,122.58 3.79,118.90
             0.20,114.35 -0.14,110.55 0.02,105.00
             0.39,91.43 9.97,87.02 22.00,87.00
             22.00,87.00 87.00,87.00 87.00,87.00 Z" />
</svg>
