<?xml version="1.0" encoding="UTF-8" standalone="no"?>
<!DOCTYPE svg PUBLIC "-//W3C//DTD SVG 20010904//EN"
              "http://www.w3.org/TR/2001/REC-SVG-20010904/DTD/svg10.dtd">

<svg xmlns="http://www.w3.org/2000/svg"
     width="5.68889in" height="5.68889in"
     viewBox="0 0 512 512">
  <path id="Selection"
        fill="none" stroke="black" stroke-width="1"
        d="M 172.00,330.00
           C 172.00,330.00 41.00,330.00 41.00,330.00
             36.80,329.95 26.81,328.75 23.00,327.34
             10.58,322.77 0.18,308.21 0.00,295.00
             -0.13,284.73 -0.88,277.40 4.35,268.01
             11.55,255.10 23.49,250.97 36.00,244.89
             36.00,244.89 72.00,227.28 72.00,227.28
             72.00,227.28 107.00,209.97 107.00,209.97
             107.00,209.97 144.00,191.97 144.00,191.97
             144.00,191.97 268.00,131.63 268.00,131.63
             268.00,131.63 315.00,108.64 315.00,108.64
             321.35,105.55 342.65,94.52 348.00,93.20
             350.61,92.83 358.92,92.96 362.00,93.20
             377.91,93.22 391.67,108.30 395.39,123.00
             396.28,126.50 396.05,135.03 396.00,139.00
             395.88,148.07 389.24,160.44 385.58,169.00
             385.58,169.00 359.42,229.00 359.42,229.00
             359.42,229.00 269.15,436.00 269.15,436.00
             269.15,436.00 250.69,478.00 250.69,478.00
             246.05,488.64 242.13,499.86 232.00,506.59
             222.42,512.96 216.82,512.13 206.00,512.00
             191.07,511.82 177.21,499.25 173.55,485.00
             173.55,485.00 172.00,467.00 172.00,467.00
             172.00,467.00 172.00,330.00 172.00,330.00 Z" />
</svg>
