<svg id="Layer_1" data-name="Layer 1" xmlns="http://www.w3.org/2000/svg" viewBox="0 0 17.01 17.01">
  <path d="m6.11,13.36c-.56-.39-.83-.94-.83-1.65v-.62c0-.22.19-.33.57-.33s.57.11.57.33v.76c0,.35.18.62.54.81.36.19.87.29,1.52.29s1.19-.1,1.57-.29c.38-.19.57-.46.57-.81v-1.6c0-.28-.11-.5-.34-.66-.23-.16-.66-.3-1.3-.45l-1.26-.28c-.58-.13-1.04-.29-1.36-.47-.33-.18-.55-.44-.68-.76-.13-.32-.19-.74-.19-1.26v-1.09c0-.73.26-1.28.79-1.66.21-.15.45-.27.73-.36h-.85c-1.02,0-1.84.83-1.84,1.84v6.78c0,1.02.83,1.84,1.84,1.84h.75c-.3-.09-.56-.22-.78-.37Z"/>
  <path d="m10.87,3.27h-.79c.28.09.52.21.73.36.52.38.78.94.78,1.66v.62c0,.22-.19.33-.57.33s-.57-.11-.57-.33v-.76c0-.74-.64-1.1-1.92-1.1-.63,0-1.11.09-1.44.28-.33.19-.49.46-.49.82v1.2c0,.5.08.85.23,1.05.15.2.44.35.88.45l1.84.41c.57.12,1.01.27,1.32.45.32.17.54.39.67.66.13.26.2.6.2,1v1.34c0,.71-.29,1.26-.86,1.65-.23.16-.5.28-.8.37h.79c1.02,0,1.84-.83,1.84-1.84v-6.78c0-1.02-.83-1.84-1.84-1.84Z"/>
</svg>
