<svg width="45" height="65" viewBox="0 0 45 65" fill="none" xmlns="http://www.w3.org/2000/svg">
<path d="M30.5767 1.20256C35.3416 0.64527 37.9692 0.666652 42.5454 1.54536L43.0955 28.5447C43.2456 33.4467 43.1612 36.2456 42.5807 41.371C44.4724 47.3979 44.1779 51.269 42.4693 58.603C43.1746 60.5959 43.4656 61.7467 43.7383 63.8744L39.2353 63.7549L31.7452 63.5561L30.6208 63.5263L31.9318 57.2138C31.1978 54.9156 30.9392 52.6944 30.6432 47.7299C30.6998 45.1896 30.9331 43.5993 31.9489 40.2685C31.4537 39.1558 31.1928 38.3163 30.7822 36.4337L30.6513 28.8699L30.5767 1.20256Z" fill="#EBEBEB"/>
<path d="M43.0955 28.5447L42.5454 1.54536C37.9692 0.666652 35.3416 0.64527 30.5767 1.20256L30.6513 28.8699M43.0955 28.5447C42.3084 26.546 41.9147 25.7193 41.4551 25.7608C37.1176 30.4929 34.7577 35.5009 30.6432 47.7299M43.0955 28.5447C43.2456 33.4467 43.1612 36.2456 42.5807 41.371M43.0955 28.5447C42.4563 39.5225 40.9155 43.5365 36.9655 48.5251C33.1702 53.7335 32.9539 54.7569 31.9318 57.2138M30.6432 47.7299C30.9392 52.6944 31.1978 54.9156 31.9318 57.2138M30.6432 47.7299C30.6998 45.1896 30.9331 43.5993 31.9489 40.2685M31.9489 40.2685C31.4537 39.1558 31.1928 38.3163 30.7822 36.4337L30.6513 28.8699M31.9489 40.2685C34.2811 34.71 35.295 32.1112 35.1604 30.9013C34.8637 28.1335 34.4455 26.8271 32.8369 25.3378C32.021 26.0855 31.5441 26.8325 30.6513 28.8699M31.9318 57.2138L30.6208 63.5263L31.7452 63.5561M42.4693 58.603C43.1746 60.5959 43.4656 61.7467 43.7383 63.8744L39.2353 63.7549M42.4693 58.603C44.1779 51.269 44.4724 47.3979 42.5807 41.371M42.4693 58.603C41.1186 60.447 40.4178 61.5853 39.2353 63.7549M42.5807 41.371C40.4965 46.4866 39.2825 48.5924 37.0759 51.685C34.3598 55.9361 33.2878 58.5923 31.7452 63.5561M31.7452 63.5561L39.2353 63.7549" stroke="#7A7A7A"/>
<path d="M28.0963 63.5H23.6069C23.2366 63.5 22.9948 63.1114 23.1583 62.7792L24.4784 60.0978C24.5984 59.854 24.8911 59.7507 25.1375 59.8651L27.0805 60.7672C27.1615 60.8048 27.2309 60.8634 27.2816 60.9369L27.6933 60.6532L27.2816 60.9369L28.5079 62.7163C28.7366 63.048 28.4991 63.5 28.0963 63.5Z" fill="#FFE5AF" stroke="#DAC69D"/>
<path d="M21.6728 61.6787L18.9927 57.7228C18.5224 57.0286 17.458 57.1867 17.2097 57.9876L16.6522 59.786C16.601 59.951 16.5935 60.1265 16.6303 60.2954L17.1468 62.661C17.2532 63.1484 17.7026 63.4828 18.2 63.4447L20.9211 63.2367C21.6867 63.1782 22.1035 62.3144 21.6728 61.6787Z" fill="#FFE5AF" stroke="#DAC69D"/>
<path d="M12.7527 54.5475L2.02902 59.2532C1.26119 59.5902 1.22406 60.6657 1.96683 61.0548L6.65935 63.5129C6.81242 63.5931 6.98367 63.6322 7.15638 63.6265L12.4465 63.4518C12.9451 63.4354 13.3553 63.0539 13.4079 62.5578L14.1489 55.5686C14.2299 54.8051 13.4558 54.2389 12.7527 54.5475Z" fill="#FFE5AF" stroke="#DAC69D"/>
</svg>
