<svg width="30" height="30" viewBox="0 0 30 30" fill="none" xmlns="http://www.w3.org/2000/svg">
<path d="M27.766 0H2.23404C1.64154 0 1.0733 0.235372 0.654336 0.654336C0.235372 1.0733 0 1.64154 0 2.23404V27.766C0 28.3585 0.235372 28.9267 0.654336 29.3457C1.0733 29.7646 1.64154 30 2.23404 30H27.766C28.3585 30 28.9267 29.7646 29.3457 29.3457C29.7646 28.9267 30 28.3585 30 27.766V2.23404C30 1.64154 29.7646 1.0733 29.3457 0.654336C28.9267 0.235372 28.3585 0 27.766 0ZM8.61702 19.7872C8.93263 19.7872 9.24115 19.8808 9.50357 20.0562C9.76599 20.2315 9.97052 20.4807 10.0913 20.7723C10.2121 21.0639 10.2437 21.3847 10.1821 21.6943C10.1205 22.0038 9.96855 22.2882 9.74538 22.5113C9.52221 22.7345 9.23788 22.8865 8.92834 22.9481C8.61879 23.0096 8.29794 22.978 8.00636 22.8573C7.71477 22.7365 7.46555 22.5319 7.29021 22.2695C7.11486 22.0071 7.02128 21.6986 7.02128 21.383C7.02128 20.9598 7.1894 20.5539 7.48866 20.2546C7.78792 19.9554 8.1938 19.7872 8.61702 19.7872ZM1.91489 27.766V2.23404C1.91489 2.1494 1.94852 2.06822 2.00837 2.00837C2.06822 1.94852 2.1494 1.91489 2.23404 1.91489H7.65957V18.0064C6.84435 18.2375 6.14021 18.7556 5.6771 19.4652C5.21399 20.1748 5.02315 21.028 5.13981 21.8673C5.25647 22.7065 5.67275 23.4753 6.31183 24.0317C6.95091 24.5881 7.76967 24.8946 8.61702 24.8946C9.46437 24.8946 10.2831 24.5881 10.9222 24.0317C11.5613 23.4753 11.9776 22.7065 12.0942 21.8673C12.2109 21.028 12.0201 20.1748 11.5569 19.4652C11.0938 18.7556 10.3897 18.2375 9.57447 18.0064V12.2059L17.8723 20.5037V28.0851H2.23404C2.1494 28.0851 2.06822 28.0515 2.00837 27.9916C1.94852 27.9318 1.91489 27.8506 1.91489 27.766ZM28.0851 27.766C28.0851 27.8506 28.0515 27.9318 27.9916 27.9916C27.9318 28.0515 27.8506 28.0851 27.766 28.0851H19.7872V20.1064C19.787 19.8525 19.686 19.6092 19.5064 19.4298L9.57447 9.49628V1.91489H15.3191V6.06383C15.3194 6.31767 15.4204 6.56104 15.6 6.74043L18.3128 9.45319C17.8996 10.193 17.7679 11.0574 17.9421 11.8867C18.1163 12.716 18.5846 13.4543 19.2605 13.9653C19.9365 14.4764 20.7745 14.7257 21.6199 14.6673C22.4652 14.6089 23.261 14.2466 23.8602 13.6474C24.4594 13.0482 24.8216 12.2525 24.8801 11.4071C24.9385 10.5617 24.6892 9.72371 24.1781 9.04777C23.667 8.37182 22.9287 7.90354 22.0994 7.72934C21.2701 7.55515 20.4058 7.6868 19.666 8.1L17.234 5.66649V1.91489H27.766C27.8506 1.91489 27.9318 1.94852 27.9916 2.00837C28.0515 2.06822 28.0851 2.1494 28.0851 2.23404V27.766ZM21.383 9.57447C21.6986 9.57447 22.0071 9.66806 22.2695 9.8434C22.5319 10.0187 22.7365 10.268 22.8573 10.5595C22.978 10.8511 23.0096 11.172 22.9481 11.4815C22.8865 11.7911 22.7345 12.0754 22.5113 12.2986C22.2882 12.5217 22.0038 12.6737 21.6943 12.7353C21.3847 12.7969 21.0639 12.7653 20.7723 12.6445C20.4807 12.5237 20.2315 12.3192 20.0562 12.0568C19.8808 11.7943 19.7872 11.4858 19.7872 11.1702C19.7872 10.747 19.9554 10.3411 20.2546 10.0419C20.5539 9.74259 20.9598 9.57447 21.383 9.57447Z" fill="#7A7A7A"/>
</svg>
